PathFileType	4	(X/Y/Z)	D:\Share\Shared_Data\Ergonomics\Sit To Stand Pertubation\S0\Perturbed STS.trc
DataRate	CameraRate	NumFrames	NumMarkers	Units	OrigDataRate	OrigDataStartFrame	OrigNumFrames	
100	100	6	18	m	100	12876	241
Frame#	Time	R_Heel			R_ASIS			R_Pelvis			V_Sacral			L_Pelvis			L_ASIS			Clavical			R_Acromium			L_Acromium			Sternum			Torso			R_Thigh_Med			R_Thigh_Lat			R_Thigh			R_Shank_Med			R_Shank_Lat			R_Shank			R_Toe			
		X1	Y1	Z1	X2	Y2	Z2	X3	Y3	Z3	X4	Y4	Z4	X5	Y5	Z5	X6	Y6	Z6	X7	Y7	Z7	X8	Y8	Z8	X9	Y9	Z9	X10	Y10	Z10	X11	Y11	Z11	X12	Y12	Z12	X13	Y13	Z13	X14	Y14	Z14	X15	Y15	Z15	X16	Y16	Z16	X17	Y17	Z17	X18	Y18	Z18	

12876	85.1	0.17204701	0.044020603	0.1167749	-0.044089115	0.73996539	0.13263603	-0.17125568	0.71334698	0.17636337	-0.28505948	0.67250513	-0.052948219	-0.14333934	0.70242236	-0.22981958	-0.025383701	0.73350818	-0.18436826	-0.0051499882	1.1028514	-0.038000999	-0.081001366	1.1714518	0.10192551	-0.087280983	1.1763116	-0.18917967	0.016427382	1.0075303	-0.053880302	-0.004971427	1.0542888	-0.16010501	0.31174631	0.49491666	0.048680546	0.29064429	0.51190216	0.18211638	0.21508475	0.64578119	0.097574539	0.2702482	0.10542401	0.075570526	0.2135762	0.087810944	0.16413832	0.26288715	0.31138397	0.19000812	0.39241879	0.054152901	0.10877394
12877	85.11	0.17202547	0.043988811	0.11673228	-0.043528915	0.73979987	0.13265819	-0.17080766	0.71360321	0.17636075	-0.28480576	0.67315509	-0.052928894	-0.14299496	0.70272382	-0.22982602	-0.024891811	0.73335107	-0.1843461	-0.0020305941	1.1022339	-0.037985886	-0.077398773	1.1712502	0.10196523	-0.083814003	1.1762061	-0.18908551	0.01890976	1.0067692	-0.053883686	-0.0022039943	1.0537003	-0.16007973	0.31166711	0.494853	0.048671402	0.29066638	0.51187247	0.18210632	0.21514999	0.64571454	0.09753022	0.27023691	0.10541254	0.075520943	0.2135847	0.087807884	0.16409605	0.26286591	0.31136823	0.18997137	0.39240921	0.054152359	0.10878941
12878	85.12	0.1720047	0.04395483	0.11668882	-0.042946182	0.7396297	0.132686	-0.17033907	0.71387018	0.17636737	-0.28452811	0.67383075	-0.052909378	-0.1426355	0.70304218	-0.22983125	-0.024398645	0.73317926	-0.18432217	0.0012182918	1.1015654	-0.037971413	-0.07364492	1.1710181	0.10200497	-0.080201424	1.1760662	-0.18898775	0.02149118	1.0059561	-0.053883034	0.0006763128	1.0530614	-0.16004683	0.31158386	0.49478726	0.048666451	0.29068774	0.51184012	0.18210016	0.21521739	0.64564392	0.097490547	0.27022739	0.10540126	0.075471344	0.21358887	0.087800415	0.16405418	0.26284326	0.31135205	0.18993538	0.39240146	0.054147762	0.10880639
12879	85.13	0.17198404	0.043918175	0.1166443	-0.042329418	0.73946417	0.13271869	-0.1698488	0.71414709	0.17638071	-0.28422623	0.67453247	-0.052889763	-0.14225854	0.70337762	-0.22983421	-0.023892263	0.73299493	-0.18429863	0.0045978556	1.1008411	-0.037957664	-0.069739182	1.1707524	0.1020442	-0.076440361	1.1758878	-0.18888715	0.024174812	1.0050876	-0.053878578	0.003670866	1.0523685	-0.1600063	0.31149692	0.49471887	0.048666805	0.29070779	0.51180328	0.18209848	0.21528729	0.6455694	0.097457726	0.27021802	0.10538938	0.075421967	0.21358495	0.087786987	0.16401221	0.26281775	0.31133441	0.1898998	0.39239368	0.054138977	0.10882491
12880	85.14	0.1719633	0.043878998	0.11659949	-0.041664944	0.73931415	0.13275459	-0.16933553	0.71443347	0.17639903	-0.28390027	0.67526093	-0.052870445	-0.14186116	0.70372925	-0.22983437	-0.023360546	0.73280066	-0.18427646	0.0081064615	1.1000558	-0.037943737	-0.065681496	1.1704497	0.10208263	-0.072528687	1.1756671	-0.18878413	0.026961409	1.0041604	-0.053869835	0.0067801962	1.0516188	-0.15995827	0.31140668	0.49464682	0.048673908	0.29072626	0.51176089	0.1821021	0.21535988	0.64549042	0.097433487	0.27020795	0.1053764	0.075374146	0.21357014	0.087766701	0.16397046	0.26278775	0.31131522	0.18986479	0.3923851	0.054125824	0.10884579
12881	85.15	0.17194295	0.043838268	0.11655588	-0.040938347	0.7391908	0.13279185	-0.16879805	0.71472968	0.17642213	-0.28355008	0.67601685	-0.052851913	-0.14143979	0.70409662	-0.22983174	-0.022792645	0.73259906	-0.18425551	0.011740426	1.0992062	-0.037928127	-0.061472145	1.1701079	0.1021198	-0.068464767	1.1754011	-0.18867862	0.02984919	1.0031723	-0.05385585	0.010004478	1.0508097	-0.15990302	0.3113139	0.4945705	0.04868927	0.29074277	0.51171274	0.1821123	0.21543553	0.64540698	0.09741922	0.27019696	0.10536237	0.075329849	0.21354332	0.087739365	0.16393001	0.26275186	0.31129483	0.18983105	0.39237616	0.05410854	0.10887018
